<svg xmlns="http://www.w3.org/2000/svg" version="1.1" xmlns:xlink="http://www.w3.org/1999/xlink" xmlns:svgjs="http://svgjs.dev/svgjs" width="1000" height="358" viewBox="0 0 1000 358"><g transform="matrix(1,0,0,1,-0.6060606060606233,0.243497152033342)"><svg viewBox="0 0 396 142" data-background-color="#ffffff" preserveAspectRatio="xMidYMid meet" height="358" width="1000" xmlns="http://www.w3.org/2000/svg" xmlns:xlink="http://www.w3.org/1999/xlink"><g id="tight-bounds" transform="matrix(1,0,0,1,0.2400000000000091,-0.09658266924228087)"><svg viewBox="0 0 395.52 142.19316533848456" height="142.19316533848456" width="395.52"><g><svg viewBox="0 0 679.7683928429608 244.3831398548621" height="142.19316533848456" width="395.52"><g transform="matrix(1,0,0,1,0,88.41833335268504)"><svg viewBox="0 0 395.52 67.54647314949202" height="67.54647314949202" width="395.52"><g id="textblocktransform"><svg viewBox="0 0 395.52 67.54647314949202" height="67.54647314949202" width="395.52" id="textblock"><g><svg viewBox="0 0 395.52 67.54647314949202" height="67.54647314949202" width="395.52"><g transform="matrix(1,0,0,1,0,0)"><svg width="395.52" viewBox="2.65 -34.8 206.69 35.3" height="67.54647314949202" data-palette-color="#181616"><path d="M2.65-34.3L15.55-34.3 15.55-29.85 11.55-29.85 11.55-4.45 15.55-4.45 15.55 0 2.65 0 2.65-4.45 6.65-4.45 6.65-29.85 2.65-29.85 2.65-34.3ZM52.85-34.3L60.5-34.3 60.5 0 55.6 0 55.6-28.55 55.3-28.55 43.45 0 39.3 0 27.5-28.55 27.25-28.55 27.25 0 22.8 0 22.8-34.3 30.5-34.3 41.55-7.3 41.75-7.3 52.85-34.3ZM78.69-34.3L84.09-34.3 97.5 0 92.19 0 89.3-7.45 72.89-7.45 70.05 0 65.3 0 78.69-34.3ZM87.59-11.9L81.3-28.4 81-28.4 74.64-11.9 87.59-11.9ZM114.89-34.8Q118.89-34.8 121.87-33.25 124.84-31.7 126.44-28.85 128.04-26 128.04-22.25L128.04-22.25 123.14-22.25Q123.14-26.1 121.02-28.23 118.89-30.35 114.89-30.35L114.89-30.35Q110.39-30.35 108.04-27.58 105.69-24.8 105.69-19.4L105.69-19.4 105.69-14.9Q105.69-9.5 108.02-6.73 110.34-3.95 114.89-3.95L114.89-3.95Q119.24-3.95 121.24-6.13 123.24-8.3 123.24-13.05L123.24-13.05 123.24-13.7 113.54-13.7 113.54-18.1 128.04-18.1 128.04-6.4Q128.04-2.25 128.34 0L128.34 0 125.44 0Q124.79-2.05 124.44-4.1L124.44-4.1Q121.19 0.5 114.89 0.5L114.89 0.5Q108.24 0.5 104.52-3.58 100.79-7.65 100.79-14.9L100.79-14.9 100.79-19.4Q100.79-26.6 104.52-30.7 108.24-34.8 114.89-34.8L114.89-34.8ZM136.14-34.3L158.64-34.3 157.99-29.85 141.04-29.85 141.04-19.75 156.39-19.75 156.39-15.3 141.04-15.3 141.04-4.45 158.29-4.45 158.99 0 136.14 0 136.14-34.3ZM174.79-34.3L180.19-34.3 193.59 0 188.29 0 185.39-7.45 168.99-7.45 166.14 0 161.39 0 174.79-34.3ZM183.69-11.9L177.39-28.4 177.09-28.4 170.74-11.9 183.69-11.9ZM196.44-34.3L209.34-34.3 209.34-29.85 205.34-29.85 205.34-4.45 209.34-4.45 209.34 0 196.44 0 196.44-4.45 200.44-4.45 200.44-29.85 196.44-29.85 196.44-34.3Z" opacity="1" transform="matrix(1,0,0,1,0,0)" fill="#181616" class="undefined-text-0" data-fill-palette-color="primary" id="text-0"></path></svg></g></svg></g></svg></g></svg></g><g transform="matrix(1,0,0,1,435.38525298809867,0)"><svg viewBox="0 0 244.3831398548621 244.3831398548621" height="244.3831398548621" width="244.3831398548621"><g><svg viewBox="0 0 244.3831398548621 244.3831398548621" height="244.3831398548621" width="244.3831398548621"><g transform="matrix(1,0,0,1,64.58991146108659,74.52123188631839)"><svg viewBox="0 0 115.20331693268894 95.34067608222531" height="95.34067608222531" width="115.20331693268894"><g><svg xmlns="http://www.w3.org/2000/svg" xmlns:xlink="http://www.w3.org/1999/xlink" version="1.1" x="0" y="0" viewBox="5.5 8 29 24" enable-background="new 0 0 40 40" xml:space="preserve" height="95.34067608222531" width="115.20331693268894" class="icon-g$-0" data-fill-palette-color="accent" id="g$-0"><path fill-rule="evenodd" clip-rule="evenodd" d="M5.5 32l6.8-7 2.3 2.3 6.2-6.3 10.7 11V11h-26V32zM11.9 15c-0.1 0.4-0.2 0.8-0.2 1.2 0 1.9 1.7 3.5 3.8 3.6-0.6 0.8-1.6 1.3-2.7 1.3-1.8 0-3.3-1.4-3.3-3.1C9.5 16.5 10.5 15.4 11.9 15zM8.5 8v2h24v19l2 0V8H8.5z" fill="#226b6a" data-fill-palette-color="accent"></path></svg></g></svg></g><path d="M26.185 151.602l2.14 7.122-2.453 0.737-0.663-2.205-14.033 4.217 0.663 2.205-2.454 0.737-2.14-7.121 2.454-0.738 0.665 2.215 14.033-4.217-0.665-2.215zM52.604 196.227l2.861 3.363-15.065 12.813-1.834-2.157 12.536-10.662-0.11-0.129-16.959 5.461-1.557-1.83 8.132-15.841-0.096-0.114-12.537 10.662-1.659-1.951 15.065-12.812 2.873 3.379-7.727 14.946 0.071 0.084zM83.758 216.583l2.884 1.163-0.232 21.231-2.829-1.141 0.054-4.611-8.773-3.538-3.132 3.369-2.533-1.021zM83.678 230.48l0.195-10.185-0.157-0.064-6.962 7.457zM126.964 224.032c1.534-0.043 2.881 0.218 4.041 0.784 1.159 0.559 2.063 1.378 2.712 2.456 0.649 1.079 0.993 2.339 1.034 3.78v0l-2.83 0.08c-0.042-1.481-0.483-2.619-1.323-3.413-0.84-0.794-2.027-1.169-3.561-1.126v0c-1.727 0.049-3.027 0.62-3.901 1.715-0.873 1.095-1.281 2.679-1.222 4.751v0l0.073 2.591c0.058 2.073 0.548 3.631 1.468 4.675 0.927 1.044 2.264 1.542 4.01 1.493v0c1.674-0.047 2.881-0.5 3.622-1.359 0.747-0.859 1.095-2.201 1.043-4.028v0l-0.01-0.369-5.59 0.158-0.072-2.541 8.36-0.236 0.19 6.746c0.045 1.594 0.136 2.822 0.273 3.682v0l-1.674 0.047c-0.268-0.784-0.483-1.565-0.644-2.345v0c-1.199 1.802-3.008 2.737-5.426 2.805v0c-2.557 0.072-4.572-0.656-6.044-2.183-1.479-1.521-2.257-3.676-2.336-6.466v0l-0.073-2.59c-0.078-2.77 0.578-4.962 1.969-6.577 1.384-1.615 3.354-2.458 5.911-2.53zM161.527 216.48l11.709-5.598 0.763 2.475-8.813 4.213 2.515 5.261 7.977-3.814 1.105 2.311-7.976 3.814 2.7 5.648 8.966-4.287 1.473 2.135-11.888 5.684zM197.66 189.548l1.986-2.394 20.152 6.685-1.948 2.347-4.375-1.455-6.041 7.28 2.256 4.009-1.744 2.102zM210.873 193.855l-9.642-3.287-0.109 0.13 4.983 8.902zM216.063 158.374l2.333-7.06 2.433 0.804-0.723 2.186 13.912 4.599 0.723-2.187 2.432 0.804-2.333 7.061-2.433-0.804 0.726-2.196-13.912-4.599-0.726 2.196z" fill="#226b6a" data-fill-palette-color="accent"></path><path d="M2.582 90.587L4.687 83.57 7.112 84.297 6.459 86.474 20.274 90.618 20.927 88.441 23.352 89.169 21.247 96.186 18.822 95.459 19.475 93.282 5.66 89.138 5.007 91.315ZM33.728 37.168L36.544 33.857 51.39 46.48 49.589 48.599 37.233 38.094 37.123 38.223 45.114 53.861 43.59 55.653 26.889 50.259 26.799 50.366 39.155 60.871 37.515 62.8 22.668 50.177 25.503 46.843 41.258 51.995 41.329 51.912ZM74.465 9.843L77.311 8.693 91.674 23.907 88.883 25.035 85.761 21.727 77.129 25.216 77.21 29.752 74.706 30.764ZM83.92 19.751L77.087 12.396 76.93 12.459 77.099 22.508ZM127.591 0.005C129.106 0.047 130.42 0.379 131.533 1.001 132.646 1.617 133.489 2.475 134.064 3.574 134.638 4.667 134.906 5.925 134.867 7.346V7.346L132.087 7.269C132.127 5.808 131.757 4.664 130.975 3.838 130.187 3.012 129.036 2.577 127.521 2.535V2.535C125.821 2.488 124.511 2.977 123.592 4.002 122.672 5.027 122.184 6.562 122.128 8.608V8.608L122.057 11.169C122 13.215 122.399 14.775 123.253 15.849 124.101 16.923 125.385 17.484 127.106 17.531V17.531C128.753 17.577 129.967 17.199 130.747 16.396 131.527 15.593 131.942 14.292 131.992 12.492V12.492L132.002 12.123 126.492 11.97 126.561 9.469 134.801 9.698 134.617 16.344C134.574 17.918 134.596 19.132 134.686 19.985V19.985L133.042 19.94C132.818 19.156 132.65 18.373 132.538 17.592V17.592C131.255 19.298 129.42 20.118 127.036 20.052V20.052C124.518 19.983 122.577 19.158 121.211 17.577 119.845 15.997 119.201 13.835 119.277 11.092V11.092L119.348 8.531C119.423 5.808 120.187 3.688 121.638 2.173 123.089 0.658 125.074-0.065 127.591 0.005ZM172.197 10.559L183.736 16.075 182.311 18.2 173.614 14.043 171.143 19.214 179.012 22.976 177.92 25.26 170.051 21.498 167.394 27.056 176.243 31.286 175.511 33.743 163.793 28.141ZM216.638 43.974L218.599 46.337 208.466 64.642 206.543 62.325 208.747 58.347 202.801 51.182 198.504 52.637 196.779 50.558ZM210.07 55.992L215.003 47.248 214.895 47.118 205.372 50.331ZM239.508 83.284L241.801 90.243 239.397 91.035 238.685 88.877 224.986 93.391 225.698 95.55 223.293 96.342 221 89.384 223.405 88.591 224.116 90.75 237.815 86.235 237.103 84.077Z" fill="#226b6a" data-fill-palette-color="accent"></path><path d="M2.582 124.628c0-4.172 3.382-7.555 7.554-7.555 4.172 0 7.555 3.382 7.555 7.555 0 4.172-3.382 7.555-7.554 7.555-4.172 0-7.555-3.382-7.555-7.555zM226.694 124.628c0-4.172 3.382-7.555 7.555-7.555 4.172 0 7.555 3.382 7.554 7.555 0 4.172-3.382 7.555-7.554 7.555-4.172 0-7.555-3.382-7.555-7.555z" fill="#226b6a" data-fill-palette-color="accent"></path></svg></g></svg></g></svg></g><defs></defs></svg><rect width="395.52" height="142.19316533848456" fill="none" stroke="none" visibility="hidden"></rect></g></svg></g></svg>